# xmcd CD database file
#
# Track frame offsets:
#	150
#	14415
#	40501
#	61860
#	85396
#	103536
#	121909
#	140724
#	174434
#	207843
#	223287
#	238334
#
# Disc length: 3674 seconds
#
# Revision: 0
# Processed by: cddbd v1.5.1PL0 Copyright (c) Steve Scherf et al.
# Submitted via: CDex 1.50Beta7
#
DISCID=aa0e580c
DTITLE=Milla - Dream a Little
DYEAR=2004
DGENRE=Jazz
TTITLE0=Get Out of Town
TTITLE1=Cry me a River
TTITLE2=Caravan
TTITLE3=Dream a Little Dream of Me
TTITLE4=Fever
TTITLE5=I Love You
TTITLE6=But Not For Me
TTITLE7=Stormy Weather
TTITLE8=Black Coffee
TTITLE9=Perdido
TTITLE10=Whatever Lola Wants
TTITLE11=Blues in the Night
EXTD=YEAR: 2004
EXTT0=
EXTT1=
EXTT2=
EXTT3=
EXTT4=
EXTT5=
EXTT6=
EXTT7=
EXTT8=
EXTT9=
EXTT10=
EXTT11=
PLAYORDER=
